<?xml version="1.0" standalone="no"?>
<!DOCTYPE svg PUBLIC "-//W3C//DTD SVG 20010904//EN"
 "http://www.w3.org/TR/2001/REC-SVG-20010904/DTD/svg10.dtd">
<svg version="1.0" xmlns="http://www.w3.org/2000/svg"
 width="712.000000pt" height="981.000000pt" viewBox="0 0 712.000000 981.000000"
 preserveAspectRatio="xMidYMid meet">
<metadata>
Created by potrace 1.16, written by Peter Selinger 2001-2019
</metadata>
<g transform="translate(0.000000,981.000000) scale(0.100000,-0.100000)"
fill="#000000" stroke="none">
<path d="M305 9796 c-161 -40 -274 -165 -295 -328 -13 -101 -13 -9017 0 -9118
18 -140 94 -244 218 -303 l67 -32 3265 0 3265 0 65 31 c79 37 150 107 188 183
l27 56 3 3608 c2 3091 0 3612 -12 3641 -14 34 -1874 2166 -1940 2224 -20 17
-52 36 -73 41 -59 17 -4712 13 -4778 -3z m4535 -1369 l0 -1003 23 -44 c12 -24
39 -58 60 -74 l39 -31 884 -3 884 -2 0 -1995 0 -1995 -3170 0 -3170 0 0 3075
0 3075 2225 0 2225 0 0 -1003z m-2415 -5642 c105 -18 213 -49 238 -67 16 -12
14 -25 -30 -193 -25 -99 -49 -184 -53 -188 -4 -5 -43 3 -87 16 -178 57 -417
62 -568 14 -243 -79 -392 -260 -435 -530 -16 -96 -8 -297 15 -382 61 -225 226
-391 450 -451 141 -37 400 -26 563 25 l62 19 5 -22 c15 -65 65 -334 65 -348 0
-23 -118 -60 -265 -84 -145 -23 -414 -24 -541 -1 -450 81 -745 346 -844 758
-59 247 -40 543 49 779 55 146 175 312 298 410 194 156 383 229 683 264 68 8
306 -4 395 -19z m1506 -19 c259 -47 439 -165 529 -349 55 -113 70 -180 70
-313 0 -283 -124 -497 -356 -617 -163 -83 -373 -124 -596 -115 l-118 5 0 -388
0 -389 -240 0 -240 0 2 1073 3 1072 95 13 c253 34 685 38 851 8z m1870 0 c241
-43 413 -150 512 -317 65 -111 82 -182 82 -349 0 -124 -3 -156 -23 -220 -37
-116 -79 -187 -163 -272 -64 -64 -93 -84 -180 -127 -171 -82 -360 -118 -581
-109 l-118 5 0 -388 0 -389 -240 0 -240 0 2 1073 3 1072 95 13 c253 34 685 38
851 8z"/>
<path d="M2448 7140 c-605 -45 -1054 -356 -1241 -860 -55 -148 -77 -271 -84
-460 -10 -306 45 -551 172 -770 185 -317 482 -510 900 -586 190 -34 610 -20
800 27 106 26 215 63 215 73 0 6 -21 141 -46 299 -41 249 -49 287 -63 282 -53
-21 -210 -56 -293 -65 -132 -14 -190 -13 -294 5 -263 46 -448 203 -531 450
-26 75 -27 91 -27 265 -1 175 1 189 26 265 88 260 293 424 568 455 142 16 358
-8 489 -55 25 -8 48 -12 51 -8 4 5 23 89 44 188 20 99 47 229 60 288 l24 109
-32 13 c-150 63 -497 103 -738 85z"/>
<path d="M3987 6383 c-4 -3 -7 -114 -7 -245 l0 -238 -230 0 -230 0 0 -105 0
-105 230 0 230 0 0 -245 0 -245 110 0 110 0 0 245 0 245 235 0 235 0 0 105 0
105 -232 2 -233 3 -3 243 -2 242 -104 0 c-56 0 -106 -3 -109 -7z"/>
<path d="M5320 6145 l0 -245 -235 0 -235 0 0 -105 0 -105 235 0 235 0 0 -245
0 -245 110 0 110 0 0 245 0 245 230 0 230 0 0 105 0 105 -230 0 -230 0 0 245
0 245 -110 0 -110 0 0 -245z"/>
<path d="M3555 2414 c-16 -2 -45 -7 -62 -10 l-33 -5 0 -319 0 -320 25 -6 c14
-3 85 -4 158 -2 107 4 143 9 192 28 79 31 165 115 188 185 69 202 -10 373
-198 431 -50 15 -213 26 -270 18z"/>
<path d="M5425 2414 c-16 -2 -45 -7 -62 -10 l-33 -5 0 -319 0 -320 25 -6 c14
-3 85 -4 158 -2 108 4 143 9 192 29 158 62 243 232 201 400 -29 112 -95 180
-211 215 -50 15 -213 26 -270 18z"/>
</g>
</svg>
