<?xml version="1.0" standalone="no"?>
<!DOCTYPE svg PUBLIC "-//W3C//DTD SVG 20010904//EN"
 "http://www.w3.org/TR/2001/REC-SVG-20010904/DTD/svg10.dtd">
<svg version="1.0" xmlns="http://www.w3.org/2000/svg"
 width="256.000000pt" height="256.000000pt" viewBox="0 0 256.000000 256.000000"
 preserveAspectRatio="xMidYMid meet">

<g transform="translate(0.000000,256.000000) scale(0.100000,-0.100000)"
fill="#000000" stroke="none">
<path d="M495 2426 c-41 -18 -83 -69 -90 -109 -3 -18 -4 -496 -3 -1064 3
-1024 3 -1032 24 -1059 11 -15 33 -37 48 -48 27 -21 35 -21 806 -21 771 0 779
0 806 21 15 11 37 33 48 48 21 27 21 37 24 839 l2 812 -297 297 -298 298 -520
0 c-410 -1 -526 -4 -550 -14z m1315 -341 l215 -215 -193 0 c-259 0 -242 -17
-242 240 0 104 1 190 3 190 1 0 99 -97 217 -215z m-1096 113 c21 -29 20 -92 0
-112 -43 -43 -102 3 -91 72 10 60 61 83 91 40z m106 -43 c0 -37 4 -65 10 -65
6 0 10 -4 10 -10 0 -5 -16 -10 -35 -10 -19 0 -35 5 -35 10 0 6 5 10 10 10 15
0 13 97 -2 103 -10 4 -9 8 2 16 32 23 40 13 40 -54z m144 49 c16 -16 21 -39
17 -84 -3 -35 -19 -50 -52 -50 -34 0 -49 23 -49 76 0 62 48 95 84 58z m142 2
c14 -11 19 -26 19 -59 0 -53 -18 -77 -56 -77 -34 0 -49 23 -49 76 0 62 42 92
86 60z m114 -51 c0 -37 4 -65 10 -65 6 0 10 -4 10 -10 0 -12 -67 -13 -74 -1
-3 5 1 11 9 15 21 8 21 96 0 96 -21 0 -19 18 3 23 40 11 42 8 42 -58z m110 5
c0 -45 4 -62 15 -66 28 -11 15 -24 -25 -24 -22 0 -40 5 -40 10 0 6 5 10 10 10
15 0 13 97 -2 103 -10 4 -9 8 2 16 32 23 40 13 40 -49z m118 -397 c5 -10 7
-25 4 -33 -16 -49 -266 -647 -274 -657 -6 -7 -21 -13 -34 -13 -49 0 -40 33
102 375 75 182 138 333 141 338 8 14 52 7 61 -10z m-372 -160 c8 -31 10 -30
-137 -114 -60 -34 -109 -65 -109 -69 0 -4 49 -35 109 -69 147 -84 145 -83 137
-114 -10 -43 -41 -34 -196 56 -210 121 -210 133 -4 253 152 90 190 100 200 57z
m603 -55 c150 -86 173 -109 154 -151 -13 -27 -285 -187 -320 -187 -16 0 -24 7
-29 27 -8 31 -10 30 137 114 60 34 109 65 109 69 0 4 -49 35 -109 69 -147 84
-145 83 -137 114 5 20 13 27 29 27 13 0 88 -37 166 -82z m-587 -718 l64 -70
462 0 462 0 0 -255 0 -256 -25 -24 -24 -25 -751 0 -751 0 -24 25 -25 24 0 326
0 325 273 0 274 0 65 -70z"/>
<path d="M654 2165 c-7 -28 9 -75 26 -75 12 0 23 40 18 71 -4 34 -36 37 -44 4z"/>
<path d="M914 2176 c-9 -23 0 -79 13 -84 17 -5 35 43 27 74 -7 26 -31 32 -40
10z"/>
<path d="M1054 2176 c-9 -23 0 -79 13 -83 18 -6 35 35 28 68 -7 30 -32 39 -41
15z"/>
<path d="M642 473 l3 -178 35 0 35 0 3 178 2 177 -40 0 -40 0 2 -177z"/>
<path d="M772 473 l3 -178 35 0 35 0 3 66 3 67 61 6 c48 6 67 13 89 36 48 48
34 141 -26 168 -14 7 -66 12 -116 12 l-89 0 2 -177z m168 97 c12 -12 17 -26
13 -37 -9 -26 -23 -33 -65 -33 l-38 0 0 45 c0 45 0 45 35 45 22 0 43 -8 55
-20z"/>
<path d="M1040 645 c0 -2 19 -44 42 -92 35 -74 42 -101 47 -173 l6 -85 38 -3
37 -3 0 75 c0 67 4 84 45 172 25 53 45 100 45 105 0 5 -18 9 -40 9 -22 0 -40
-4 -40 -9 0 -5 -11 -33 -24 -62 l-24 -54 -28 63 c-27 61 -28 62 -66 62 -21 0
-38 -2 -38 -5z"/>
<path d="M1340 470 l0 -180 35 0 34 0 3 117 3 118 65 -115 c64 -112 66 -115
100 -115 l35 0 3 178 2 178 -37 -3 -38 -3 0 -103 c0 -56 -2 -102 -5 -102 -3 0
-31 48 -63 105 l-59 105 -39 0 -39 0 0 -180z"/>
<path d="M1672 473 l3 -178 67 -3 c78 -3 141 11 169 39 27 27 27 109 -1 134
-18 16 -18 20 -6 34 21 24 28 63 17 93 -16 43 -58 58 -161 58 l-90 0 2 -177z
m159 107 c44 -24 11 -70 -50 -70 -29 0 -31 2 -31 40 0 38 2 40 31 40 17 0 39
-5 50 -10z m10 -140 c21 -12 25 -50 7 -68 -7 -7 -31 -12 -55 -12 l-43 0 0 45
c0 45 0 45 36 45 19 0 44 -5 55 -10z"/>
</g>
</svg>
