<?xml version="1.0" standalone="no"?>
<!DOCTYPE svg PUBLIC "-//W3C//DTD SVG 20010904//EN"
 "http://www.w3.org/TR/2001/REC-SVG-20010904/DTD/svg10.dtd">
<svg version="1.0" xmlns="http://www.w3.org/2000/svg"
 width="128.000000pt" height="128.000000pt" viewBox="0 0 128.000000 128.000000"
 preserveAspectRatio="xMidYMid meet">

<g transform="translate(0.000000,128.000000) scale(0.100000,-0.100000)"
fill="#000000" stroke="none">
<path d="M96 664 c-24 -23 -24 -425 0 -448 14 -14 70 -16 464 -16 394 0 450 2
464 16 24 23 24 425 0 448 -14 14 -70 16 -464 16 -394 0 -450 -2 -464 -16z
m424 -164 c0 -28 3 -30 35 -30 32 0 35 2 35 30 0 20 5 30 15 30 12 0 15 -16
15 -85 0 -69 -3 -85 -15 -85 -11 0 -15 11 -15 40 0 39 -1 40 -35 40 -34 0 -35
-1 -35 -40 0 -29 -4 -40 -15 -40 -12 0 -15 16 -15 85 0 69 3 85 15 85 10 0 15
-10 15 -30z"/>
</g>
</svg>
