<?xml version="1.0" encoding="UTF-8"?>
<svg xmlns="http://www.w3.org/2000/svg" xmlns:ooo="http://xml.openoffice.org/svg/export" xmlns:xlink="http://www.w3.org/1999/xlink" version="1.2" baseProfile="tiny" viewBox="0 0 15375 17876" fill-rule="evenodd" clip-path="url(#presentation_clip_path)" stroke-width="28.222" stroke-linejoin="round" xml:space="preserve">
 <defs class="ClipPathGroup">
  <clipPath id="presentation_clip_path" clipPathUnits="userSpaceOnUse">
   <rect x="0" y="0" width="15375" height="17876"/>
  </clipPath>
 </defs>
 <defs class="TextShapeIndex">
  <g ooo:slide="id1" ooo:id-list="id3 id4 id5 id6 id7 id8 id9 id10 id11 id12 id13 id14 id15 id16 id17"/>
 </defs>
 <defs class="EmbeddedBulletChars">
  <g id="bullet-char-template(57356)" transform="scale(0.00048828125,-0.00048828125)">
   <path d="M 580,1141 L 1163,571 580,0 -4,571 580,1141 Z"/>
  </g>
  <g id="bullet-char-template(57354)" transform="scale(0.00048828125,-0.00048828125)">
   <path d="M 8,1128 L 1137,1128 1137,0 8,0 8,1128 Z"/>
  </g>
  <g id="bullet-char-template(10146)" transform="scale(0.00048828125,-0.00048828125)">
   <path d="M 174,0 L 602,739 174,1481 1456,739 174,0 Z M 1358,739 L 309,1346 659,739 1358,739 Z"/>
  </g>
  <g id="bullet-char-template(10132)" transform="scale(0.00048828125,-0.00048828125)">
   <path d="M 2015,739 L 1276,0 717,0 1260,543 174,543 174,936 1260,936 717,1481 1274,1481 2015,739 Z"/>
  </g>
  <g id="bullet-char-template(10007)" transform="scale(0.00048828125,-0.00048828125)">
   <path d="M 0,-2 C -7,14 -16,27 -25,37 L 356,567 C 262,823 215,952 215,954 215,979 228,992 255,992 264,992 276,990 289,987 310,991 331,999 354,1012 L 381,999 492,748 772,1049 836,1024 860,1049 C 881,1039 901,1025 922,1006 886,937 835,863 770,784 769,783 710,716 594,584 L 774,223 C 774,196 753,168 711,139 L 727,119 C 717,90 699,76 672,76 641,76 570,178 457,381 L 164,-76 C 142,-110 111,-127 72,-127 30,-127 9,-110 8,-76 1,-67 -2,-52 -2,-32 -2,-23 -1,-13 0,-2 Z"/>
  </g>
  <g id="bullet-char-template(10004)" transform="scale(0.00048828125,-0.00048828125)">
   <path d="M 285,-33 C 182,-33 111,30 74,156 52,228 41,333 41,471 41,549 55,616 82,672 116,743 169,778 240,778 293,778 328,747 346,684 L 369,508 C 377,444 397,411 428,410 L 1163,1116 C 1174,1127 1196,1133 1229,1133 1271,1133 1292,1118 1292,1087 L 1292,965 C 1292,929 1282,901 1262,881 L 442,47 C 390,-6 338,-33 285,-33 Z"/>
  </g>
  <g id="bullet-char-template(9679)" transform="scale(0.00048828125,-0.00048828125)">
   <path d="M 813,0 C 632,0 489,54 383,161 276,268 223,411 223,592 223,773 276,916 383,1023 489,1130 632,1184 813,1184 992,1184 1136,1130 1245,1023 1353,916 1407,772 1407,592 1407,412 1353,268 1245,161 1136,54 992,0 813,0 Z"/>
  </g>
  <g id="bullet-char-template(8226)" transform="scale(0.00048828125,-0.00048828125)">
   <path d="M 346,457 C 273,457 209,483 155,535 101,586 74,649 74,723 74,796 101,859 155,911 209,963 273,989 346,989 419,989 480,963 531,910 582,859 608,796 608,723 608,648 583,586 532,535 482,483 420,457 346,457 Z"/>
  </g>
  <g id="bullet-char-template(8211)" transform="scale(0.00048828125,-0.00048828125)">
   <path d="M -4,459 L 1135,459 1135,606 -4,606 -4,459 Z"/>
  </g>
 </defs>
 <defs class="TextEmbeddedBitmaps"/>
 <g>
  <g id="id2" class="Master_Slide">
   <g id="bg-id2" class="Background"/>
   <g id="bo-id2" class="BackgroundObjects"/>
  </g>
 </g>
 <g class="SlideGroup">
  <g>
   <g id="id1" class="Slide" clip-path="url(#presentation_clip_path)">
    <g class="Page">
     <g class="com.sun.star.drawing.PolyPolygonShape">
      <g id="id3">
       <path fill="rgb(0,0,0)" stroke="none" d="M 1,-1 L 1,0 1,0 0,0 1,-1 Z"/>
      </g>
     </g>
     <g class="com.sun.star.drawing.PolyPolygonShape">
      <g id="id4">
       <path fill="rgb(0,0,0)" stroke="none" d="M 0,-1 L 1,-1 1,0 0,0 0,-1 Z"/>
      </g>
     </g>
     <g class="com.sun.star.drawing.PolyPolygonShape">
      <g id="id5">
       <path fill="rgb(0,0,0)" stroke="none" d="M 0,1 L 1,0 0,-1 2,0 0,1 Z M 1,0 L 0,-1 1,0 Z"/>
      </g>
     </g>
     <g class="com.sun.star.drawing.PolyPolygonShape">
      <g id="id6">
       <path fill="rgb(0,0,0)" stroke="none" d="M 2,0 L 1,1 1,1 1,0 0,0 0,0 1,0 1,-1 1,-1 2,0 Z"/>
      </g>
     </g>
     <g class="com.sun.star.drawing.ClosedBezierShape">
      <g id="id7">
       <path fill="rgb(0,0,0)" stroke="none" d="M 0,0 L 0,0 0,0 C 0,-1 0,-1 0,-1 L 0,-1 0,-1 0,-1 0,-1 1,-1 1,-1 1,-1 1,-1 1,-1 1,-1 1,0 1,0 1,0 1,0 1,0 1,0 0,0 Z"/>
      </g>
     </g>
     <g class="com.sun.star.drawing.ClosedBezierShape">
      <g id="id8">
       <path fill="rgb(0,0,0)" stroke="none" d="M 0,0 L 0,0 0,0 0,0 C 0,-1 0,-1 0,-1 L 0,0 0,0 0,0 1,-1 1,-1 C 2,-1 2,-1 2,-1 L 2,-1 1,-1 0,0 Z"/>
      </g>
     </g>
     <g class="com.sun.star.drawing.ClosedBezierShape">
      <g id="id9">
       <path fill="rgb(0,0,0)" stroke="none" d="M 1,0 C 0,0 0,0 0,0 L 0,0 0,-1 1,-1 1,-1 1,0 Z"/>
      </g>
     </g>
     <g class="com.sun.star.drawing.PolyPolygonShape">
      <g id="id10">
       <path fill="rgb(0,0,0)" stroke="none" d="M 0,-1 L 0,-1 Z"/>
      </g>
     </g>
     <g class="com.sun.star.drawing.PolyPolygonShape">
      <g id="id11">
       <path fill="rgb(0,0,0)" stroke="none" d="M 0,0 L 1,0 1,0 0,0 Z"/>
      </g>
     </g>
     <g class="com.sun.star.drawing.PolyPolygonShape">
      <g id="id12">
       <path fill="rgb(255,255,255)" stroke="none" d="M 1437,16440 L 1437,1439 9771,1439 13938,5606 13938,16440 1437,16440 Z"/>
      </g>
     </g>
     <g class="com.sun.star.drawing.PolyPolygonShape">
      <g id="id13">
       <path fill="none" stroke="rgb(0,0,0)" stroke-width="375" stroke-linejoin="round" d="M 1437,16440 L 1437,1439 9771,1439 13938,5606 13938,16440 1437,16440 Z"/>
      </g>
     </g>
     <g class="com.sun.star.drawing.PolyPolygonShape">
      <g id="id14">
       <path fill="rgb(178,178,178)" stroke="none" d="M 9770,1437 L 13938,5605 9770,5605 9770,1437 Z M 9770,1437 L 9770,1437 Z M 13938,5605 L 13938,5605 Z"/>
      </g>
     </g>
     <g class="com.sun.star.drawing.PolyPolygonShape">
      <g id="id15">
       <path fill="none" stroke="rgb(0,0,0)" stroke-width="375" stroke-linejoin="round" d="M 9770,1437 L 13938,5605 9770,5605 9770,1437 Z"/>
      </g>
     </g>
     <g class="com.sun.star.drawing.CustomShape">
      <g id="id16">
       <path fill="rgb(255,255,255)" stroke="none" d="M 7583,12000 C 7291,12000 7000,12291 7000,12583 L 7000,14917 C 7000,15209 7291,15501 7583,15501 L 14417,15501 C 14709,15501 15001,15209 15001,14917 L 15001,12583 C 15001,12291 14709,12000 14417,12000 L 7583,12000 Z M 7000,12000 L 7000,12000 Z M 15001,15501 L 15001,15501 Z"/>
       <path fill="none" stroke="rgb(51,51,51)" stroke-width="200" stroke-linejoin="round" d="M 7583,12000 C 7291,12000 7000,12291 7000,12583 L 7000,14917 C 7000,15209 7291,15501 7583,15501 L 14417,15501 C 14709,15501 15001,15209 15001,14917 L 15001,12583 C 15001,12291 14709,12000 14417,12000 L 7583,12000 Z"/>
      </g>
     </g>
     <g class="com.sun.star.drawing.CustomShape">
      <g id="id17">
       <path fill="rgb(255,102,0)" stroke="none" d="M 7600,14303 L 8184,14303 8184,14999 7600,14999 7600,14303 Z M 8547,12500 L 9559,12500 9639,12502 9715,12511 9784,12527 9848,12550 9879,12562 9908,12578 9936,12594 9962,12611 9987,12631 10011,12653 10033,12675 10054,12699 10074,12725 10093,12751 10110,12779 10127,12809 10142,12839 10155,12871 10167,12906 10178,12941 10188,12977 10196,13014 10209,13093 10217,13177 10219,13266 10216,13358 10208,13446 10194,13527 10185,13566 10174,13605 10163,13641 10149,13675 10134,13709 10118,13742 10101,13773 10082,13802 10062,13831 10040,13858 10016,13883 9992,13909 9966,13930 9939,13951 9909,13971 9879,13989 9814,14018 9742,14042 9664,14058 9581,14069 9492,14071 9159,14071 9159,14999 8547,14999 8547,12500 Z M 9159,13565 L 9308,13565 9350,13563 9390,13559 9426,13554 9458,13546 9487,13534 9501,13529 9513,13522 9525,13514 9536,13506 9546,13497 9555,13487 9564,13478 9572,13467 9579,13457 9587,13446 9593,13434 9599,13423 9605,13411 9609,13399 9613,13386 9617,13374 9619,13361 9622,13347 9625,13333 9626,13318 9627,13289 9626,13259 9622,13231 9618,13205 9615,13193 9612,13179 9608,13167 9602,13155 9597,13143 9592,13131 9579,13110 9565,13089 9556,13079 9548,13070 9537,13061 9527,13053 9515,13046 9503,13039 9490,13033 9475,13027 9445,13018 9411,13013 9373,13009 9332,13007 9159,13007 9159,13565 Z M 10540,12500 L 11149,12500 11149,13374 11815,13374 11815,12500 12426,12500 12426,14999 11815,14999 11815,13987 11149,13987 11149,14999 10540,14999 10540,12500 Z M 12828,12500 L 13840,12500 13919,12502 13995,12511 14064,12527 14128,12550 14159,12562 14188,12578 14216,12594 14242,12611 14267,12631 14291,12653 14313,12675 14334,12699 14354,12725 14373,12751 14390,12779 14407,12809 14422,12839 14435,12871 14447,12906 14458,12941 14468,12977 14476,13014 14489,13093 14497,13177 14499,13266 14496,13358 14488,13446 14474,13527 14465,13566 14454,13605 14443,13641 14429,13675 14414,13709 14399,13742 14381,13773 14362,13802 14342,13831 14320,13858 14297,13883 14272,13909 14246,13930 14219,13951 14189,13971 14159,13989 14094,14018 14022,14042 13945,14058 13862,14069 13772,14071 13439,14071 13439,14999 12828,14999 12828,12500 Z M 13439,13565 L 13588,13565 13630,13563 13670,13559 13706,13554 13739,13546 13767,13534 13781,13529 13793,13522 13805,13514 13816,13506 13826,13497 13835,13487 13844,13478 13852,13467 13859,13457 13867,13446 13873,13434 13879,13423 13885,13411 13889,13399 13893,13386 13897,13374 13899,13361 13903,13347 13905,13333 13906,13318 13907,13289 13906,13259 13903,13231 13898,13205 13895,13193 13892,13179 13888,13167 13883,13155 13877,13143 13872,13131 13859,13110 13845,13089 13836,13079 13828,13070 13817,13061 13807,13053 13795,13046 13783,13039 13770,13033 13755,13027 13725,13018 13691,13013 13654,13009 13613,13007 13439,13007 13439,13565 Z"/>
       <path fill="none" stroke="rgb(0,0,0)" stroke-width="26" stroke-linejoin="miter" d="M 7600,14303 L 8184,14303 8184,14999 7600,14999 7600,14303 Z"/>
       <path fill="none" stroke="rgb(0,0,0)" stroke-width="26" stroke-linejoin="miter" d="M 8547,12500 L 9559,12500 9639,12502 9715,12511 9784,12527 9848,12550 9879,12562 9908,12578 9936,12594 9962,12611 9987,12631 10011,12653 10033,12675 10054,12699 10074,12725 10093,12751 10110,12779 10127,12809 10142,12839 10155,12871 10167,12906 10178,12941 10188,12977 10196,13014 10209,13093 10217,13177 10219,13266 10216,13358 10208,13446 10194,13527 10185,13566 10174,13605 10163,13641 10149,13675 10134,13709 10118,13742 10101,13773 10082,13802 10062,13831 10040,13858 10016,13883 9992,13909 9966,13930 9939,13951 9909,13971 9879,13989 9814,14018 9742,14042 9664,14058 9581,14069 9492,14071 9159,14071 9159,14999 8547,14999 8547,12500 Z"/>
       <path fill="none" stroke="rgb(0,0,0)" stroke-width="26" stroke-linejoin="miter" d="M 9159,13565 L 9308,13565 9350,13563 9390,13559 9426,13554 9458,13546 9487,13534 9501,13529 9513,13522 9525,13514 9536,13506 9546,13497 9555,13487 9564,13478 9572,13467 9579,13457 9587,13446 9593,13434 9599,13423 9605,13411 9609,13399 9613,13386 9617,13374 9619,13361 9622,13347 9625,13333 9626,13318 9627,13289 9626,13259 9622,13231 9618,13205 9615,13193 9612,13179 9608,13167 9602,13155 9597,13143 9592,13131 9579,13110 9565,13089 9556,13079 9548,13070 9537,13061 9527,13053 9515,13046 9503,13039 9490,13033 9475,13027 9445,13018 9411,13013 9373,13009 9332,13007 9159,13007 9159,13565 Z"/>
       <path fill="none" stroke="rgb(0,0,0)" stroke-width="26" stroke-linejoin="miter" d="M 10540,12500 L 11149,12500 11149,13374 11815,13374 11815,12500 12426,12500 12426,14999 11815,14999 11815,13987 11149,13987 11149,14999 10540,14999 10540,12500 Z"/>
       <path fill="none" stroke="rgb(0,0,0)" stroke-width="26" stroke-linejoin="miter" d="M 12828,12500 L 13840,12500 13919,12502 13995,12511 14064,12527 14128,12550 14159,12562 14188,12578 14216,12594 14242,12611 14267,12631 14291,12653 14313,12675 14334,12699 14354,12725 14373,12751 14390,12779 14407,12809 14422,12839 14435,12871 14447,12906 14458,12941 14468,12977 14476,13014 14489,13093 14497,13177 14499,13266 14496,13358 14488,13446 14474,13527 14465,13566 14454,13605 14443,13641 14429,13675 14414,13709 14399,13742 14381,13773 14362,13802 14342,13831 14320,13858 14297,13883 14272,13909 14246,13930 14219,13951 14189,13971 14159,13989 14094,14018 14022,14042 13945,14058 13862,14069 13772,14071 13439,14071 13439,14999 12828,14999 12828,12500 Z"/>
       <path fill="none" stroke="rgb(0,0,0)" stroke-width="26" stroke-linejoin="miter" d="M 13439,13565 L 13588,13565 13630,13563 13670,13559 13706,13554 13739,13546 13767,13534 13781,13529 13793,13522 13805,13514 13816,13506 13826,13497 13835,13487 13844,13478 13852,13467 13859,13457 13867,13446 13873,13434 13879,13423 13885,13411 13889,13399 13893,13386 13897,13374 13899,13361 13903,13347 13905,13333 13906,13318 13907,13289 13906,13259 13903,13231 13898,13205 13895,13193 13892,13179 13888,13167 13883,13155 13877,13143 13872,13131 13859,13110 13845,13089 13836,13079 13828,13070 13817,13061 13807,13053 13795,13046 13783,13039 13770,13033 13755,13027 13725,13018 13691,13013 13654,13009 13613,13007 13439,13007 13439,13565 Z"/>
      </g>
     </g>
    </g>
   </g>
  </g>
 </g>
</svg>
